<svg width="401" height="226" viewBox="0 0 401 226" fill="none" xmlns="http://www.w3.org/2000/svg">
<path d="M90.4629 81.8128V30.9229H103.783V37.6825H103.933C104.946 35.9443 106.161 34.4959 107.579 33.3371C108.997 32.1783 110.584 31.3092 112.34 30.7298C114.163 30.086 116.121 29.7642 118.214 29.7642C121.455 29.7642 124.156 30.4079 126.316 31.6955C128.477 32.983 130.098 34.9787 131.178 37.6825H131.786C132.798 35.9443 134.014 34.4959 135.432 33.3371C136.85 32.1783 138.47 31.3092 140.293 30.7298C142.116 30.086 144.108 29.7642 146.269 29.7642C149.375 29.7642 152.008 30.3436 154.169 31.5023C156.397 32.5967 158.051 34.3349 159.131 36.7168C160.279 39.0988 160.853 42.1245 160.853 45.794V81.8128H146.775V48.6909C146.775 47.4034 146.64 46.309 146.37 45.4077C146.1 44.5064 145.695 43.7661 145.155 43.1867C144.682 42.5429 144.041 42.0923 143.23 41.8348C142.488 41.5129 141.61 41.352 140.597 41.352C139.044 41.352 137.66 41.8026 136.444 42.7039C135.297 43.6052 134.385 44.8605 133.71 46.4699C133.035 48.0793 132.697 49.9785 132.697 52.1673V81.8128H118.619V48.6909C118.619 47.4034 118.484 46.309 118.214 45.4077C118.011 44.5064 117.64 43.7661 117.1 43.1867C116.56 42.5429 115.884 42.0923 115.074 41.8348C114.331 41.5129 113.487 41.352 112.542 41.352C110.922 41.352 109.504 41.8026 108.288 42.7039C107.14 43.6052 106.229 44.8605 105.554 46.4699C104.879 48.0793 104.541 49.9785 104.541 52.1673V81.8128H90.4629Z" fill="black"/>
<path d="M12.0928 81.813L34.7038 7.38013L58.1637 7.38013L80.7834 81.813H63.1232L58.8977 64.9266H33.3284L29.1029 81.813H12.0928ZM37.0121 51.7086H55.214L50.378 30.7957C50.1613 30.1456 49.9085 29.2789 49.6196 28.1954C49.3306 27.112 49.0056 25.9563 48.6445 24.7284C48.3555 23.5005 48.0305 22.2726 47.6694 21.0447C47.3804 19.7445 47.0915 18.5888 46.8026 17.5776H46.1525C45.8636 18.8055 45.5025 20.2862 45.0691 22.0198C44.6357 23.6811 44.2023 25.3062 43.7689 26.8953C43.3356 28.4121 42.9744 29.7123 42.6855 30.7957L37.0121 51.7086Z" fill="black"/>
<path d="M197.665 7.37988H181.963V20.4298H197.665V68.7629H181.963V81.8128H197.665H214.35H230.088V68.7629H214.35V20.4298H230.088V7.37988H214.35H197.665Z" fill="black"/>
<path d="M136.032 222.991V126.123H164.652L166.67 139.332H167.771C169.85 135.907 172.296 133.033 175.109 130.709C177.922 128.385 181.102 126.673 184.649 125.572C188.318 124.471 192.171 123.921 196.207 123.921C202.934 123.921 208.377 125.205 212.535 127.774C216.816 130.342 219.935 134.012 221.892 138.782C223.849 143.552 224.827 149.361 224.827 156.21V222.991H190.887V162.448C190.887 160.858 190.642 159.39 190.153 158.045C189.786 156.7 189.236 155.538 188.502 154.559C187.768 153.581 186.789 152.847 185.566 152.358C184.466 151.746 183.12 151.44 181.53 151.44C179.084 151.44 177.005 152.174 175.292 153.642C173.58 154.987 172.235 156.822 171.256 159.146C170.4 161.347 169.972 163.855 169.972 166.668V222.991H136.032Z" fill="black"/>
<path d="M59.8087 225.192C46.9664 225.192 36.0809 222.868 27.1524 218.221C18.3462 213.451 11.6193 206.235 6.97157 196.572C2.32386 186.91 0 174.679 0 159.88C0 145.08 2.32386 132.85 6.97157 123.187C11.6193 113.525 18.3462 106.37 27.1524 101.722C36.0809 96.9521 46.9664 94.5671 59.8087 94.5671C72.6511 94.5671 83.5365 96.9521 92.465 101.722C101.394 106.37 108.12 113.525 112.646 123.187C117.294 132.85 119.617 145.08 119.617 159.88C119.617 174.679 117.294 186.91 112.646 196.572C108.12 206.235 101.394 213.451 92.465 218.221C83.5365 222.868 72.6511 225.192 59.8087 225.192ZM59.8087 195.471C63.478 195.471 66.658 194.86 69.3488 193.637C72.0395 192.291 74.2411 190.457 75.9534 188.133C77.6657 185.687 78.8888 182.812 79.6226 179.51C80.3565 176.208 80.7234 172.539 80.7234 168.502V151.257C80.7234 147.221 80.3565 143.552 79.6226 140.249C78.8888 136.947 77.6657 134.134 75.9534 131.81C74.2411 129.364 72.0395 127.529 69.3488 126.306C66.658 124.961 63.478 124.288 59.8087 124.288C56.0172 124.288 52.776 124.961 50.0852 126.306C47.5167 127.529 45.3763 129.364 43.664 131.81C42.074 134.134 40.8509 136.947 39.9948 140.249C39.2609 143.552 38.894 147.221 38.894 151.257V168.502C38.894 172.539 39.2609 176.208 39.9948 179.51C40.8509 182.812 42.074 185.687 43.664 188.133C45.3763 190.457 47.5167 192.291 50.0852 193.637C52.776 194.86 56.0172 195.471 59.8087 195.471Z" fill="black"/>
<path d="M65.0684 87.949C77.7981 87.949 88.5246 90.3136 97.2871 94.9949L97.2959 94.9998C106.032 99.5475 112.621 106.545 117.065 116.035L117.069 116.044C121.638 125.542 123.949 137.624 123.949 152.334C123.949 167.044 121.638 179.125 117.069 188.624L117.065 188.633C112.622 198.121 106.033 205.181 97.2959 209.851C88.5313 214.414 77.8015 216.719 65.0684 216.719C52.733 216.718 42.2778 214.555 33.668 210.272L32.8408 209.851C24.2253 205.181 17.6344 198.118 13.0674 188.624C8.49857 179.125 6.1875 167.043 6.1875 152.334C6.18751 137.624 8.49854 125.542 13.0674 116.044C17.636 106.546 24.229 99.5445 32.8457 94.9968L32.8496 94.9949C41.6121 90.3135 52.3386 87.949 65.0684 87.949ZM201.467 117.303C208.084 117.303 213.341 118.567 217.308 121.017L217.317 121.024C221.421 123.486 224.409 126.996 226.293 131.588C228.192 136.216 229.159 141.899 229.159 148.665V214.516H197.075V154.902C197.075 153.235 196.819 151.677 196.302 150.233C195.908 148.8 195.313 147.536 194.504 146.457C193.671 145.346 192.567 144.518 191.222 143.97C189.963 143.286 188.472 142.967 186.79 142.967C184.157 142.967 181.868 143.759 179.979 145.366C178.124 146.823 176.69 148.794 175.66 151.24L175.655 151.252L175.651 151.263C174.746 153.591 174.304 156.215 174.304 159.122V214.516H142.22V119.505H169.114L171.012 131.927L171.133 132.715H173.553L173.823 132.267C175.854 128.923 178.234 126.13 180.96 123.879C183.676 121.635 186.745 119.98 190.175 118.915L190.176 118.916C193.754 117.842 197.516 117.303 201.467 117.303ZM65.0684 115.814C61.4131 115.814 58.2048 116.422 55.4707 117.672L54.9297 117.93C52.2164 119.226 49.959 121.167 48.1631 123.732L48.1582 123.74C46.4962 126.169 45.234 129.085 44.3564 132.47L44.3516 132.486L44.3486 132.502C43.5976 135.881 43.2256 139.62 43.2256 143.711V160.957C43.2256 165.048 43.5976 168.786 44.3486 172.166L44.3516 172.181L44.3564 172.197C45.2335 175.58 46.4927 178.55 48.1455 181.093L48.1602 181.116L48.1768 181.137C49.9729 183.575 52.2215 185.502 54.9141 186.913L54.9375 186.926L54.9609 186.936C57.8013 188.227 61.1805 188.853 65.0684 188.853C68.8388 188.853 72.1555 188.226 74.9922 186.936L75.0234 186.921C77.8397 185.513 80.1569 183.584 81.96 181.137L81.9668 181.129L81.9736 181.119C83.7643 178.561 85.0314 175.571 85.7881 172.166C86.5391 168.786 86.9111 165.048 86.9111 160.957V143.711C86.9111 139.62 86.5391 135.881 85.7881 132.502C85.0783 129.308 83.9182 126.527 82.292 124.177L81.96 123.714C80.1553 121.142 77.8289 119.204 74.9922 117.915H74.9912C72.1534 116.503 68.8363 115.814 65.0684 115.814Z" fill="#B8FF01" stroke="black" stroke-width="1.85636"/>
<path d="M307.69 110.504C307.404 108.705 307.662 109.629 306.921 107.376C306.24 105.305 305.133 102.93 303.478 100.734C300.517 96.8056 295.176 92.4969 284.175 92.4968C273.545 92.4968 267.872 96.9171 264.363 102.023C260.382 107.816 258.967 115.027 258.967 119.1H232.541C232.541 110.765 235.016 98.0677 242.584 87.0554C250.626 75.3548 264.163 66.0706 284.175 66.0706C303.817 66.0707 316.839 74.5553 324.581 84.8284C331.718 94.2977 334.116 104.915 334.116 110.504C334.116 112.742 334.597 120.786 331.271 129.648C327.763 138.995 320.519 148.327 307.223 155.428C299.458 159.576 297.258 163.305 296.405 165.503C295.291 168.374 295.394 170.967 295.394 176.163H268.967C268.967 172.685 268.476 164.426 271.769 155.942C275.323 146.785 282.532 138.657 294.774 132.119C302.679 127.897 305.386 123.411 306.53 120.363C307.856 116.83 307.69 113.9 307.69 110.504Z" fill="black"/>
<path d="M301.997 206.532C301.997 216.838 293.642 225.192 283.336 225.192C273.03 225.192 264.675 216.838 264.675 206.532C264.675 196.226 273.03 187.871 283.336 187.871C293.642 187.871 301.997 196.226 301.997 206.532Z" fill="black"/>
<path d="M357.83 37.2603C389.861 66.4405 395.483 107.213 394.285 124.885L366.026 122.968C366.836 111.022 362.525 79.8522 338.756 58.1984C315.097 36.6452 285.049 36.2987 274.106 38.566L268.359 10.8314C285.539 7.2715 325.688 7.97943 357.83 37.2603Z" fill="black"/>
<path d="M289.847 179.679C299.518 179.679 307.358 187.519 307.358 197.19C307.358 206.862 299.518 214.702 289.847 214.702C280.175 214.702 272.335 206.862 272.335 197.19C272.335 187.519 280.175 179.679 289.847 179.679ZM276.23 2.39551C293.743 -0.848079 332.457 0.426904 363.567 28.7686C394.586 57.0265 400.581 96.3071 399.714 114.318L373.742 112.558C374.229 99.641 369.421 69.3076 346.04 48.0078C322.803 26.8395 293.517 25.8248 281.513 27.8867L276.23 2.39551ZM315.35 101.072L315.335 100.983C315.266 100.547 315.23 100.277 315.202 100.076C315.175 99.8799 315.152 99.7062 315.106 99.5098C315.027 99.1674 314.874 98.742 314.523 97.6768C313.81 95.5079 312.65 93.0147 310.906 90.7012C307.836 86.628 302.414 82.288 291.736 82.0205L290.687 82.0068C285.207 82.0068 280.936 83.1476 277.558 84.9961C274.181 86.8439 271.759 89.3647 269.927 92.0312C266.14 97.5411 264.597 104.248 264.362 108.61H240.218C240.436 100.469 242.97 88.6555 250.042 78.3652C257.887 66.9507 271.083 57.8789 290.687 57.8789C309.951 57.8791 322.64 66.1813 330.175 76.1787C337.156 85.442 339.478 95.8152 339.478 101.163C339.478 103.445 339.946 111.271 336.706 119.903C333.301 128.976 326.254 138.098 313.192 145.074C305.232 149.326 302.815 153.247 301.845 155.746C300.728 158.623 300.746 161.277 300.756 165.673H276.616C276.568 161.726 276.461 154.462 279.351 147.017C282.787 138.163 289.778 130.226 301.825 123.791C309.965 119.444 312.87 114.747 314.116 111.426C315.531 107.657 315.35 104.494 315.35 101.163V101.072Z" fill="#B8FF01" stroke="black" stroke-width="2.29792"/>
</svg>
